<svg width="795" height="616" viewBox="0 0 795 616" fill="none" xmlns="http://www.w3.org/2000/svg">
<g id="undraw_ride_a_bicycle_re_6tjy 1">
<path id="background" d="M618.775 152.369V137.559C618.775 134.167 617.43 130.809 614.817 127.676C612.205 124.543 608.375 121.697 603.548 119.299C598.72 116.901 592.989 114.999 586.681 113.701C580.373 112.403 573.613 111.735 566.786 111.735V111.735V97.261H578.891C584.184 97.261 589.26 96.2167 593.003 94.3577C596.745 92.4988 598.848 89.9775 598.848 87.3485C598.848 84.7196 596.745 82.1983 593.003 80.3393C589.26 78.4804 584.184 77.436 578.891 77.436H566.786V73H560.67V77.436H545.631C540.338 77.436 535.262 78.4804 531.52 80.3393C527.777 82.1983 525.674 84.7196 525.674 87.3485C525.674 89.9775 527.777 92.4988 531.52 94.3577C535.262 96.2167 540.338 97.261 545.631 97.261H560.67V111.735H522.532C518.906 111.735 515.315 112.09 511.965 112.779C508.614 113.469 505.57 114.479 503.006 115.753C500.442 117.026 498.408 118.538 497.02 120.202C495.632 121.867 494.918 123.65 494.918 125.451V152.369H486.117C458.644 152.369 432.296 157.79 412.87 167.439C393.443 177.089 382.53 190.176 382.53 203.822V237.16C365.119 240.886 349.947 246.786 338.488 254.288C327.029 261.789 319.673 270.636 317.136 279.968H260.497V257.182H232.973V244.296H242.959C248.252 244.296 253.328 243.252 257.071 241.393C260.813 239.534 262.916 237.013 262.916 234.384C262.916 231.755 260.813 229.234 257.071 227.375C253.328 225.516 248.252 224.471 242.959 224.471H232.973V221.485H226.857V224.471H209.699C204.406 224.471 199.33 225.516 195.587 227.375C191.845 229.234 189.742 231.755 189.742 234.384C189.742 237.013 191.845 239.534 195.587 241.393C199.33 243.252 204.406 244.296 209.699 244.296H226.857V257.223C219.83 257.425 213.224 258.954 208.391 261.496C203.559 264.038 200.866 267.402 200.862 270.898V280.049C174.422 280.776 149.546 286.505 131.345 296.059C113.144 305.613 103.001 318.267 103 331.42V542H670V177.813C670 174.472 668.675 171.163 666.101 168.076C663.526 164.989 659.753 162.184 654.997 159.821C650.24 157.459 644.593 155.585 638.378 154.306C632.163 153.027 625.502 152.369 618.775 152.369V152.369Z" fill="url(#paint0_linear_1_2)"/>
<g id="wheel-front">
<path id="Vector 2" d="M602.871 599.468V389.613M495.866 500.774L708.837 491.424M683.904 568.302L521.838 424.936M536.382 580.768L673.515 414.547" stroke="#3F3D56"/>
<path id="Vector" d="M602.548 613.562C579.128 613.562 556.234 606.618 536.762 593.606C517.289 580.595 502.112 562.102 493.149 540.465C484.187 518.828 481.842 495.019 486.411 472.05C490.98 449.08 502.258 427.981 518.818 411.421C535.378 394.861 556.477 383.583 579.447 379.014C602.416 374.445 626.225 376.79 647.862 385.752C669.499 394.715 687.992 409.892 701.003 429.365C714.015 448.837 720.959 471.731 720.959 495.151C720.924 526.545 708.437 556.643 686.238 578.841C664.039 601.04 633.942 613.527 602.548 613.562ZM602.548 387.703C581.296 387.703 560.522 394.005 542.853 405.811C525.183 417.618 511.411 434.399 503.279 454.032C495.146 473.666 493.019 495.27 497.164 516.113C501.31 536.956 511.544 556.101 526.571 571.128C541.597 586.155 560.743 596.388 581.586 600.534C602.428 604.68 624.033 602.552 643.666 594.42C663.3 586.287 680.081 572.515 691.887 554.845C703.694 537.176 709.995 516.402 709.995 495.151C709.963 466.664 698.632 439.353 678.489 419.209C658.346 399.066 631.035 387.735 602.548 387.703V387.703Z" fill="#3F3D56"/>
</g>
<g id="wheel-back">
<path id="Vector 1" d="M140.445 600.295V384.005M30.1583 498.574L249.66 488.938M223.962 568.173L56.9268 420.41M71.9172 581.021L213.255 409.703" stroke="#3F3D56"/>
<path id="Vector_2" d="M139.64 608.989C116.769 608.989 94.4108 602.207 75.3939 589.501C56.377 576.794 41.5551 558.733 32.8026 537.603C24.0501 516.473 21.7601 493.221 26.222 470.789C30.684 448.357 41.6977 427.752 57.8702 411.58C74.0427 395.407 94.6478 384.394 117.08 379.932C139.512 375.47 162.763 377.76 183.893 386.512C205.024 395.265 223.084 410.087 235.791 429.103C248.498 448.12 255.28 470.478 255.28 493.35C255.245 524.009 243.051 553.402 221.372 575.081C199.692 596.76 170.299 608.955 139.64 608.989V608.989ZM139.64 388.417C118.886 388.417 98.5986 394.571 81.3426 406.101C64.0865 417.631 50.6371 434.02 42.695 453.194C34.7529 472.368 32.6749 493.466 36.7237 513.821C40.7726 534.176 50.7664 552.873 65.4415 567.548C80.1166 582.223 98.8138 592.217 119.169 596.266C139.524 600.315 160.622 598.237 179.796 590.295C198.97 582.352 215.358 568.903 226.888 551.647C238.418 534.391 244.573 514.103 244.573 493.35C244.541 465.529 233.476 438.858 213.804 419.186C194.132 399.514 167.46 388.448 139.64 388.417V388.417Z" fill="#3F3D56"/>
</g>
<g id="body">
<path id="Vector_3" d="M464.206 215.659C462.349 216.3 460.373 216.526 458.419 216.32C456.465 216.115 454.58 215.484 452.896 214.471C451.213 213.458 449.772 212.089 448.675 210.459C447.577 208.829 446.851 206.978 446.546 205.037L341.556 178.002L358.678 160.037L458.676 189.399C461.971 189.104 465.259 190.027 467.918 191.994C470.578 193.961 472.423 196.836 473.105 200.073C473.787 203.31 473.257 206.684 471.617 209.557C469.977 212.43 467.34 214.601 464.206 215.659H464.206Z" fill="#FFB6B6"/>
<path id="Vector_4" d="M304.71 90.1337C304.71 90.1337 287.638 92.1116 287.945 111.784C288.251 131.457 330.099 176.271 336.628 183.696C343.157 191.121 408.312 194.915 408.312 194.915L428.666 177.018L368.316 156.685L304.71 90.1337Z" fill="#6C63FF"/>
<path id="Vector_5" d="M295.074 452.045L305.504 460.773L344.882 423.801L329.488 410.92L295.074 452.045Z" fill="#FFB6B6"/>
<path id="Vector_6" d="M325.93 449.093L303.843 433.847L361.999 341.644C319.848 317.145 290.862 287.258 267.21 254.429C259.172 243.35 254.272 230.456 265.485 222.144C266.01 221.756 266.548 221.388 267.1 221.04C279.887 213.073 275.736 225.014 293.263 219.149L309.1 236.043L343.316 269.336L401.679 306.592C413.416 314.084 416.672 329.843 408.953 341.791C408.545 342.422 408.111 343.034 407.65 343.629L325.93 449.093Z" fill="#2F2E41"/>
<path id="Vector_7" d="M296.395 444.936L314.683 458.472L308.438 465.934L315.426 491.229C315.771 492.478 315.708 493.805 315.246 495.016C314.784 496.227 313.946 497.258 312.857 497.959C311.767 498.661 310.481 498.995 309.187 498.914C307.894 498.833 306.66 498.341 305.666 497.509L284.93 480.156L287.534 469.783L279.961 475.997L272.143 469.454L296.395 444.936Z" fill="#2F2E41"/>
<path id="Vector_8" d="M297.251 508.843L267.861 483.466C265.816 481.699 264.557 479.192 264.36 476.497C264.163 473.801 265.044 471.138 266.811 469.092C268.577 467.047 271.083 465.786 273.779 465.588C276.474 465.39 279.138 466.271 281.184 468.036L310.574 493.413C311.588 494.288 312.42 495.354 313.021 496.55C313.623 497.746 313.983 499.049 314.081 500.384C314.179 501.719 314.013 503.061 313.593 504.332C313.173 505.603 312.506 506.779 311.631 507.792C310.756 508.805 309.69 509.637 308.493 510.238C307.297 510.839 305.994 511.199 304.659 511.296C303.324 511.394 301.982 511.228 300.711 510.807C299.44 510.386 298.265 509.718 297.251 508.843V508.843Z" fill="#3F3D56"/>
<path id="Vector_9" d="M464.509 464.999L429.472 481.738C427.033 482.903 424.231 483.052 421.682 482.151C419.133 481.25 417.046 479.374 415.881 476.935C414.716 474.495 414.567 471.693 415.468 469.144C416.368 466.595 418.245 464.509 420.684 463.343L455.721 446.604C458.16 445.439 460.962 445.29 463.511 446.191C466.06 447.092 468.146 448.968 469.312 451.407C470.477 453.847 470.626 456.649 469.725 459.198C468.824 461.747 466.948 463.833 464.509 464.999V464.999Z" fill="#3F3D56"/>
<path id="Vector_10" d="M142.673 510.819C151.251 510.819 158.205 503.865 158.205 495.287C158.205 486.709 151.251 479.755 142.673 479.755C134.095 479.755 127.141 486.709 127.141 495.287C127.141 503.865 134.095 510.819 142.673 510.819Z" fill="#3F3D56"/>
<path id="Vector_11" d="M602.285 511.252C610.863 511.252 617.817 504.298 617.817 495.72C617.817 487.142 610.863 480.188 602.285 480.188C593.707 480.188 586.753 487.142 586.753 495.72C586.753 504.298 593.707 511.252 602.285 511.252Z" fill="#3F3D56"/>
<path id="Vector_12" d="M353.326 511.356C363.273 511.356 371.336 503.292 371.336 493.345C371.336 483.398 363.273 475.335 353.326 475.335C343.378 475.335 335.315 483.398 335.315 493.345C335.315 503.292 343.378 511.356 353.326 511.356Z" fill="#3F3D56"/>
<path id="Vector_13" d="M146.661 494.186L139.579 487.547L266.004 352.678L491.618 285.155L603.589 481.668L595.156 486.474L487.006 296.669L271.297 361.227L146.661 494.186Z" fill="#3F3D56"/>
<path id="Vector_14" d="M337.552 488.375H146.315V498.083H337.552V488.375Z" fill="#3F3D56"/>
<path id="Vector_15" d="M273.504 306.198H263.797V356.952H273.504V306.198Z" fill="#3F3D56"/>
<path id="Vector_16" d="M462.262 191.355L453.024 194.338L484.693 292.404L493.931 289.421L462.262 191.355Z" fill="#3F3D56"/>
<path id="Vector_17" d="M287.276 312.249H248.446C245.743 312.249 243.15 311.175 241.239 309.263C239.327 307.352 238.253 304.759 238.253 302.056C238.253 299.352 239.327 296.76 241.239 294.848C243.15 292.937 245.743 291.863 248.446 291.863H287.276C289.98 291.863 292.572 292.937 294.484 294.848C296.395 296.76 297.469 299.352 297.469 302.056C297.469 304.759 296.395 307.352 294.484 309.263C292.572 311.175 289.98 312.249 287.276 312.249V312.249Z" fill="#6C63FF"/>
<path id="Vector_18" d="M272.535 350.567L264.158 355.473L343.76 491.378L352.137 486.472L272.535 350.567Z" fill="#3F3D56"/>
<path id="Vector_19" d="M534.506 370.361L363.662 486.862L369.131 494.882L539.975 378.381L534.506 370.361Z" fill="#3F3D56"/>
<path id="Vector_20" d="M476.573 202.554H437.743C435.039 202.554 432.447 201.48 430.535 199.568C428.624 197.657 427.55 195.064 427.55 192.361C427.55 189.658 428.624 187.065 430.535 185.153C432.447 183.242 435.039 182.168 437.743 182.168H476.573C479.276 182.168 481.869 183.242 483.78 185.153C485.692 187.065 486.766 189.658 486.766 192.361C486.766 195.064 485.692 197.657 483.78 199.568C481.869 201.48 479.276 202.554 476.573 202.554Z" fill="#6C63FF"/>
<path id="Vector_21" d="M505.365 321.982L472.948 253.553L473.387 253.346C475.633 252.281 478.067 251.67 480.55 251.546C483.033 251.423 485.516 251.789 487.857 252.625C490.198 253.461 492.351 254.75 494.194 256.418C496.037 258.087 497.533 260.102 498.598 262.348L514.806 296.563C515.87 298.809 516.482 301.244 516.605 303.726C516.729 306.209 516.362 308.692 515.526 311.033C514.69 313.374 513.401 315.528 511.733 317.37C510.065 319.213 508.05 320.71 505.803 321.774L505.365 321.982Z" fill="#3F3D56"/>
<path id="Vector_22" d="M513.614 297.644C519.397 295.506 521.448 286.639 518.195 277.839C514.942 269.038 507.617 263.637 501.833 265.775C496.05 267.913 494 276.78 497.253 285.58C500.506 294.381 507.831 299.782 513.614 297.644Z" fill="#6C63FF"/>
<path id="Vector_23" d="M415.607 451.937L428.821 448.677L422.712 394.998L403.208 399.811L415.607 451.937Z" fill="#FFB6B6"/>
<path id="Vector_24" d="M409.348 436.533L429.971 426.924L433.548 435.974L459.111 441.905C460.373 442.198 461.509 442.887 462.353 443.871C463.196 444.855 463.703 446.083 463.799 447.376C463.895 448.668 463.575 449.958 462.887 451.056C462.198 452.154 461.177 453.003 459.971 453.479L434.825 463.418L426.953 456.18L428.798 465.8L419.317 469.547L409.348 436.533Z" fill="#2F2E41"/>
<path id="Vector_25" d="M429.562 403.567L401.385 420.465L371.333 314.331C322.581 313.915 277.505 308.457 240.701 291.645C228.232 285.999 222.685 271.067 228.312 258.294C228.575 257.697 228.861 257.111 229.168 256.535C236.332 243.282 250.221 235.499 262.546 221.725L323.679 244.296L319.299 260.759L388.452 264.23C402.359 264.928 412.991 277.007 412.2 291.21C412.158 291.96 412.084 292.707 411.978 293.452L429.562 403.567Z" fill="#2F2E41"/>
<path id="Vector_26" d="M472.795 195.581C471.087 196.551 469.187 197.135 467.228 197.292C465.27 197.449 463.301 197.174 461.46 196.487C459.619 195.801 457.951 194.719 456.573 193.318C455.196 191.917 454.142 190.231 453.487 188.379L345.318 181.063L358.854 160.261L462.542 170.781C465.726 169.886 469.128 170.19 472.103 171.636C475.079 173.082 477.42 175.569 478.684 178.626C479.948 181.683 480.046 185.097 478.961 188.222C477.876 191.347 475.682 193.965 472.795 195.581V195.581Z" fill="#FFB6B6"/>
<path id="Vector_27" d="M293.368 101.623C293.368 101.623 276.949 106.699 280.86 125.982C284.77 145.264 334.13 181.641 341.91 187.742C349.69 193.844 414.435 185.62 414.435 185.62L431.16 164.293L368.104 155.376L293.368 101.623Z" fill="#6C63FF"/>
<path id="body_2" d="M310.022 75.4076L328.809 85.2308C329.847 85.6451 330.73 86.3728 331.335 87.3125C331.939 88.2523 332.236 89.3573 332.183 90.4735L337.077 110.055L354.295 146.501C354.295 146.501 358.781 165.897 350.219 184.211C341.658 202.525 322.709 248.179 322.709 248.179C310.35 277.781 208.905 254.921 235.341 229.735C238.487 226.738 256.166 201.424 262.635 199.969L278.508 109.14C279.308 104.345 281.159 99.786 283.929 95.7904C286.699 91.7948 290.318 88.4616 294.528 86.0299C297.071 84.5923 299.428 83.7411 301.044 84.1755C304.727 85.0337 306.467 76.694 310.022 75.4076Z" fill="#6C63FF"/>
</g>
<g id="head">
<path id="Vector_28" d="M332.512 75.6847C348.14 73.0278 358.655 58.205 355.998 42.577C353.341 26.9491 338.518 16.434 322.89 19.0909C307.262 21.7479 296.747 36.5707 299.404 52.1986C302.061 67.8266 316.884 78.3417 332.512 75.6847Z" fill="#FFB6B6"/>
<path id="Vector_29" d="M358.317 37.8922C353.983 40.0273 349.076 36.9328 345.283 33.8554L346.64 35.0033C340.061 41.5376 337.05 50.8723 335.625 60.0455C334.2 69.2091 334.127 78.5662 332.306 87.6688C330.485 96.7618 326.606 105.919 319.243 111.553C309.38 119.098 295.665 118.762 283.443 116.605C283.28 116.574 283.128 116.55 282.965 116.519C286.15 107.008 287.381 96.9523 286.584 86.9542C283.418 97.0142 277.945 106.196 270.602 113.766C262.492 111.624 254.568 108.829 246.908 105.408C241.952 103.188 236.608 100.138 235.185 94.8952C233.759 89.6924 236.89 84.1875 241.118 80.8494C245.346 77.5114 250.559 75.7389 255.39 73.3421C260.213 70.9564 264.975 67.5768 266.864 62.5292C271.221 50.9175 258.333 37.7772 263.186 26.3571C265.579 20.7412 271.55 17.6385 277.168 15.2359C285.744 11.5777 294.558 8.50348 303.549 6.03421C311.442 3.86519 319.689 2.15787 327.765 3.44344C335.841 4.72899 343.79 9.55146 346.771 17.1782C351.629 18.7647 356.788 20.5561 359.937 24.5994C363.085 28.6332 362.906 35.635 358.317 37.8922Z" fill="#2F2E41"/>
</g>
</g>
<defs>
<linearGradient id="paint0_linear_1_2" x1="636" y1="192" x2="110" y2="533" gradientUnits="userSpaceOnUse">
<stop stop-color="#C6B040"/>
<stop offset="0.567708" stop-color="#12ECDF" stop-opacity="0.432292"/>
<stop offset="1" stop-color="#FA1321"/>
</linearGradient>
</defs>
</svg>
